<?xml version="1.0" encoding="iso-8859-1"?>
<!-- Generator: Adobe Illustrator 22.0.0, SVG Export Plug-In . SVG Version: 6.00 Build 0)  -->
<svg version="1.1" id="Layer_1" xmlns="http://www.w3.org/2000/svg" xmlns:xlink="http://www.w3.org/1999/xlink" x="0px" y="0px"
	 viewBox="0 0 100.25 100.25" style="enable-background:new 0 0 100.25 100.25;" xml:space="preserve">
<path fill='#FFF'  d="M79.097,42.193c-9.341-7.75-19.093-11.846-28.203-11.846c-24.193,0-42.009,22.618-42.756,23.581
	c-0.507,0.654-0.388,1.596,0.266,2.104c0.654,0.507,1.598,0.39,2.104-0.265c0.175-0.225,17.68-22.42,40.386-22.42
	c20.396,0,37.059,22.169,37.225,22.393c0.294,0.397,0.747,0.607,1.206,0.607c0.311,0,0.623-0.096,0.892-0.295
	c0.665-0.492,0.806-1.432,0.313-2.097C90.351,53.714,86.087,47.993,79.097,42.193z"/>
<path fill='#FFF'  d="M48.861,19.808c-0.021-0.815-0.688-1.461-1.498-1.461c-0.014,0-0.027,0-0.04,0.001C21.721,19.019,2.968,40.706,2.181,41.629
	c-0.536,0.631-0.461,1.577,0.17,2.114c0.282,0.24,0.628,0.358,0.972,0.358c0.425,0,0.846-0.18,1.143-0.527
	c0.185-0.216,18.693-21.593,42.936-22.229C48.229,21.325,48.883,20.636,48.861,19.808z"/>
<path fill='#FFF'  d="M52.641,21.408c2.216,0.117,4.476,0.406,6.717,0.859c0.101,0.02,0.2,0.029,0.299,0.029c0.699,0,1.324-0.491,1.469-1.203
	c0.164-0.812-0.361-1.604-1.174-1.768c-2.384-0.481-4.791-0.789-7.152-0.914c-0.811-0.029-1.532,0.592-1.577,1.419
	C51.178,20.658,51.814,21.364,52.641,21.408z"/>
<path fill='#FFF'  d="M65.917,24.054c2.098,0.72,4.222,1.593,6.315,2.593c0.208,0.1,0.429,0.146,0.646,0.146c0.56,0,1.097-0.314,1.354-0.854
	c0.357-0.747,0.041-1.643-0.707-2c-2.196-1.05-4.429-1.966-6.634-2.724c-0.784-0.267-1.638,0.148-1.906,0.932
	S65.134,23.785,65.917,24.054z"/>
<path fill='#FFF'  d="M78.252,29.914c1.921,1.169,3.838,2.46,5.7,3.836c0.269,0.198,0.581,0.294,0.891,0.294c0.459,0,0.913-0.21,1.207-0.608
	c0.492-0.666,0.352-1.605-0.314-2.098c-1.934-1.43-3.927-2.771-5.923-3.986c-0.707-0.43-1.631-0.207-2.062,0.501
	S77.545,29.484,78.252,29.914z"/>
<path fill='#FFF'  d="M96.451,40.858c-0.075-0.087-1.899-2.155-5.164-5.033c-0.622-0.551-1.571-0.487-2.117,0.133
	c-0.548,0.622-0.488,1.569,0.133,2.117c3.108,2.739,4.877,4.742,4.895,4.763c0.297,0.337,0.711,0.51,1.128,0.51
	c0.351,0,0.704-0.123,0.988-0.373C96.936,42.427,96.997,41.48,96.451,40.858z"/>
<path fill='#FFF'  d="M49.631,42.206c-10.204,0-18.505,8.297-18.505,18.496c0,10.203,8.301,18.504,18.505,18.504
	c10.198,0,18.495-8.301,18.495-18.504C68.126,50.503,59.829,42.206,49.631,42.206z M49.631,76.206
	c-8.55,0-15.505-6.955-15.505-15.504c0-8.545,6.955-15.496,15.505-15.496c8.544,0,15.495,6.951,15.495,15.496
	C65.126,69.251,58.175,76.206,49.631,76.206z"/>
<path fill='#FFF'  d="M49.626,54.206c-3.584,0-6.5,2.916-6.5,6.5s2.916,6.5,6.5,6.5s6.5-2.916,6.5-6.5S53.21,54.206,49.626,54.206z
	 M49.626,64.206c-1.93,0-3.5-1.57-3.5-3.5s1.57-3.5,3.5-3.5s3.5,1.57,3.5,3.5S51.556,64.206,49.626,64.206z"/>
</svg>
