<svg xmlns="http://www.w3.org/2000/svg" viewBox="0 0 1440 320"><path fill="#0099ff" fill-opacity="1" d="M0,256L26.7,250.7C53.3,245,107,235,160,234.7C213.3,235,267,245,320,208C373.3,171,427,85,480,96C533.3,107,587,213,640,224C693.3,235,747,149,800,101.3C853.3,53,907,43,960,64C1013.3,85,1067,139,1120,186.7C1173.3,235,1227,277,1280,272C1333.3,267,1387,213,1413,186.7L1440,160L1440,320L1413.3,320C1386.7,320,1333,320,1280,320C1226.7,320,1173,320,1120,320C1066.7,320,1013,320,960,320C906.7,320,853,320,800,320C746.7,320,693,320,640,320C586.7,320,533,320,480,320C426.7,320,373,320,320,320C266.7,320,213,320,160,320C106.7,320,53,320,27,320L0,320Z"></path></svg>